# xmcd CD database file
#
# Track frame offsets:
#	150
#	30037
#	60597
#	80492
#	102129
#	122127
#	139910
#	167625
#	183395
#	208097
#
# Disc length: 3019 seconds
#
# Revision: 2
# Processed by: cddbd v1.5.1PL0 Copyright (c) Steve Scherf et al.
# Submitted via: cdripper 1.0.7
#
DISCID=7f0bc90a
DTITLE=Bobby Blue Bland - Sad Street
DYEAR=1996
DGENRE=Blues
TTITLE0=Double Trouble
TTITLE1=Sad Street
TTITLE2=God Bless The Child That's Got His Own
TTITLE3=Tonight's The Night
TTITLE4=My Hearts Been Broken Again
TTITLE5=I've Got A Twenty Room House
TTITLE6=Mind Your Own Business
TTITLE7=I Wanna Tell You About The Blues
TTITLE8=I Had A Dream Last Night
TTITLE9=Let's Have Some Fun
EXTD=YEAR: 1996
EXTT0=
EXTT1=
EXTT2=
EXTT3=
EXTT4=
EXTT5=
EXTT6=
EXTT7=
EXTT8=
EXTT9=
PLAYORDER=
